<svg width="136" height="413" viewBox="0 0 136 413" fill="none" xmlns="http://www.w3.org/2000/svg">
<rect width="136" height="413" rx="16" fill="white"/>
<g clip-path="url(#clip0_53_47)">
<path d="M135.346 187.87V183.329C135.32 167.534 128.468 152.52 116.557 142.164C113.814 139.185 96.7669 129.063 96.7669 105.397V10.3823C96.7669 4.6447 84.1281 0 68.5378 0H67.6796C52.1152 0 39.4635 4.6447 39.4505 10.3823V105.332C39.4505 129.063 22.3908 139.198 19.6342 142.099C7.7237 152.455 0.87122 167.469 0.845215 183.264V252.141C38.2542 252.141 57.8885 241.16 75.2082 231.48C91.5787 222.334 105.713 214.437 135.346 214.437V187.883V187.87Z" fill="#1A1A2E"/>
<path d="M0.923159 279.059V305.639C38.3453 305.639 57.9665 294.672 75.2862 284.992C91.6568 275.833 105.791 267.948 135.411 267.948V241.355C98.9513 241.355 79.5772 252.193 62.4655 261.729C45.8479 271.019 31.4928 279.059 0.910156 279.059" fill="#1A1A2E"/>
<path d="M0.923159 332.545V359.125C38.3453 359.125 57.9665 348.144 75.2862 338.464C91.6568 329.318 105.791 321.421 135.411 321.421V294.828C98.9513 294.828 79.5772 305.665 62.4655 315.215C45.8479 324.504 31.4928 332.545 0.910156 332.545" fill="#1A1A2E"/>
<path d="M0 386.017V412.597C37.6821 412.597 57.4464 401.63 74.8831 391.95C91.3577 382.791 105.583 374.906 135.411 374.906V348.3C98.6653 348.3 79.1871 359.138 61.9193 368.688C45.2498 377.964 30.8036 386.017 0 386.017Z" fill="#1A1A2E"/>
</g>
<defs>
<clipPath id="clip0_53_47">
<rect width="136" height="413" fill="white"/>
</clipPath>
</defs>
</svg>
